<?xml version="1.0" encoding="UTF-8"?>
<!-- Generated by Pixelmator Pro 2.4.2 -->
<svg width="226" height="64" viewBox="0 0 226 64" xmlns="http://www.w3.org/2000/svg" xmlns:xlink="http://www.w3.org/1999/xlink">
    <path id="Path" fill="#ef4027" stroke="none" d="M 62.720001 9.519989 L 62.669998 4.559998 L 72.380005 0.050003 L 72.429993 9.519989 L 62.720001 9.519989 Z"/>
    <path id="path1" fill="#ef4027" stroke="none" d="M 117.26001 63.899994 C 108.820007 63.899994 100.970001 59.339996 96.779999 52 C 96.200012 50.990005 96.559998 49.699997 97.559998 49.130005 C 98.570007 48.559998 99.859985 48.910004 100.429993 49.910004 C 103.880005 55.940002 110.320007 59.690002 117.26001 59.690002 C 124.200012 59.690002 130.649994 55.940002 134.089996 49.910004 C 134.670013 48.899994 135.959991 48.550003 136.959991 49.119995 C 137.970001 49.699997 138.320007 50.979996 137.75 51.990005 C 133.549988 59.339996 125.700012 63.899994 117.26001 63.899994 Z"/>
    <path id="path2" fill="#38434b" stroke="none" d="M 62.669998 43.419998 L 62.669998 11.960007 L 72.380005 11.960007 L 72.380005 43.419998 L 62.669998 43.419998 Z"/>
    <path id="path3" fill="#38434b" stroke="none" d="M 44.360001 43.429993 L 35.619995 43.429993 L 28.419998 21.830002 L 21.149994 43.429993 L 12.410004 43.429993 L 0.220001 6.699997 L 9.839996 6.699997 L 17.110001 29.25 L 24.600006 6.699997 L 32.169998 6.699997 L 39.660004 29.330002 L 46.929993 6.699997 L 56.550003 6.699997 L 44.360001 43.429993 Z"/>
    <path id="path4" fill="#38434b" stroke="none" d="M 114.459991 21.029999 L 114.459991 43.360001 L 104.76001 43.360001 L 104.76001 23.080002 C 104.76001 17.940002 101.820007 14.479996 97.339996 14.479996 C 91.829987 14.479996 88.230011 18.149994 88.230011 27.119995 L 88.230011 43.350006 L 78.529999 43.350006 L 78.529999 6.699997 L 88.230011 6.699997 L 88.230011 10.009995 C 91.100006 7.139999 94.910004 5.600006 99.76001 5.600006 C 108.579987 5.600006 114.459991 11.919998 114.459991 21.029999 Z"/>
    <path id="path5" fill="#38434b" stroke="none" d="M 180.25 20.440002 L 180.25 43.360001 L 170.630005 43.360001 L 170.630005 22.419998 C 170.630005 17.5 167.470001 14.490005 163.429993 14.490005 C 158.290009 14.490005 154.910004 18.020004 154.910004 25.729996 L 154.910004 43.360001 L 145.209991 43.360001 L 145.209991 22.419998 C 145.209991 17.5 142.049988 14.490005 138.01001 14.490005 C 132.869995 14.490005 129.640015 18.020004 129.640015 25.729996 L 129.640015 43.360001 L 119.940002 43.360001 L 119.940002 6.699997 L 129.640015 6.699997 L 129.640015 9.709991 C 132.209991 7.139999 135.809998 5.600006 140.589996 5.600006 C 145.51001 5.600006 149.98999 7.730011 152.640015 11.619995 C 155.649994 7.869995 160.130005 5.600006 166.01001 5.600006 C 173.640015 5.600006 180.25 11.479996 180.25 20.440002 Z"/>
    <path id="path6" fill="#38434b" stroke="none" d="M 225.600006 25.070007 C 225.600006 36.600006 216.559998 44.320007 205.839996 44.320007 C 194.890015 44.320007 185.859985 36.610001 185.859985 25.070007 C 185.859985 13.529999 194.890015 5.820007 205.839996 5.820007 C 216.570007 5.820007 225.600006 13.529999 225.600006 25.070007 Z M 216.200012 25.070007 C 216.200012 18.240005 210.910004 14.119995 205.839996 14.119995 C 200.549988 14.119995 195.26001 18.229996 195.26001 25.070007 C 195.26001 31.899994 200.549988 36.020004 205.839996 36.020004 C 210.910004 36.009995 216.200012 31.899994 216.200012 25.070007 Z"/>
</svg>
